<svg xmlns="http://www.w3.org/2000/svg" width="936.713" height="282"><g fill-rule="evenodd"><path fill="#f90" d="M581.09 220.539c-54.231 40.1-133.112 61.462-201.147 61.462-95.315 0-180.769-35.168-245.846-93.671-4.93-4.6-.657-10.846 5.587-7.231 70.007 40.755 156.448 65.077 245.846 65.077 60.147 0 126.538-12.489 187.671-38.455 9.2-3.615 16.762 6.245 7.888 12.818Z" data-name="Path 19"/><path fill="#f90" d="M603.769 194.574c-6.9-8.874-46.014-4.273-63.433-1.972-5.259.657-6.245-3.944-1.315-7.231 31.224-22.021 82.168-15.448 88.084-8.217s-1.643 58.5-30.9 82.825c-4.6 3.615-8.874 1.643-6.9-3.287 6.576-16.434 21.366-52.918 14.464-62.118Z" data-name="Path 20"/><path d="M541.321 30.9V9.531a5 5 0 0 1 5.259-5.259h95.315a5.477 5.477 0 0 1 5.588 5.259v18.077c0 2.958-2.629 6.9-7.231 13.476l-49.3 70.336c18.406-.329 37.8 2.3 54.231 11.5 3.615 1.972 4.6 5.259 4.93 8.217v22.678c0 3.287-3.287 6.9-6.9 4.93-29.252-15.448-68.364-17.091-100.573.329-3.287 1.643-6.9-1.643-6.9-4.93v-21.69c0-3.287 0-9.2 3.615-14.461l57.189-81.839h-49.635a5.477 5.477 0 0 1-5.588-5.254ZM193.916 163.349h-28.923a5.935 5.935 0 0 1-5.259-4.93V9.86a5.477 5.477 0 0 1 5.587-5.259h26.951a5.357 5.357 0 0 1 5.259 4.93v19.392h.657c6.9-18.734 20.378-27.608 38.126-27.608 18.077 0 29.58 8.874 37.469 27.608 6.9-18.734 23.007-27.608 40.1-27.608 12.161 0 25.308 4.93 33.525 16.434 9.2 12.489 7.231 30.566 7.231 46.671v94a5.477 5.477 0 0 1-5.587 5.259h-28.598c-2.958-.329-5.259-2.629-5.259-5.259V79.538c0-6.245.657-22.021-.657-27.937-2.3-9.86-8.545-12.818-17.091-12.818a19.354 19.354 0 0 0-17.42 12.161c-2.958 7.559-2.629 20.049-2.629 28.594v78.882a5.477 5.477 0 0 1-5.587 5.259h-28.923c-2.958-.329-5.259-2.629-5.259-5.259V79.538c0-16.434 2.629-41.084-17.748-41.084-20.706 0-20.049 23.664-20.049 41.084v78.882a5.773 5.773 0 0 1-5.916 4.93ZM729.65 1.315c43.056 0 66.392 36.811 66.392 83.811 0 45.357-25.636 81.51-66.392 81.51-42.07 0-65.077-36.811-65.077-82.825-.329-46.343 23.007-82.5 65.077-82.5Zm0 30.566c-21.364 0-22.678 29.252-22.678 47.329s-.329 56.86 22.35 56.86c22.35 0 23.664-31.224 23.664-50.287 0-12.49-.657-27.608-4.273-39.441-3.287-10.518-9.86-14.461-19.063-14.461Zm121.937 131.468h-28.923c-2.958-.329-5.259-2.629-5.259-5.259V9.2a5.681 5.681 0 0 1 5.588-4.93h26.951a5.62 5.62 0 0 1 5.259 4.273v22.678h.657c8.217-20.378 19.392-29.909 39.441-29.909 12.818 0 25.636 4.6 33.853 17.42 7.559 11.832 7.559 31.881 7.559 46.343v93.671a5.408 5.408 0 0 1-5.588 4.6H902.2c-2.629-.329-4.93-2.3-5.259-4.6V77.895c0-16.434 1.972-40.1-18.077-40.1-6.9 0-13.475 4.6-16.762 11.832-3.944 9.2-4.6 18.077-4.6 28.266v80.2a6.019 6.019 0 0 1-5.916 5.259ZM465.4 92.357c0 11.175.329 20.706-5.259 30.9-4.6 8.217-11.832 13.147-20.049 13.147-11.175 0-17.748-8.545-17.748-21.035 0-24.65 22.021-29.252 43.056-29.252Zm29.252 70.664a5.942 5.942 0 0 1-6.9.657c-9.531-7.888-11.5-11.832-16.762-19.392-15.776 16.1-27.28 21.035-47.657 21.035-24.322 0-43.385-15.119-43.385-45.028 0-23.664 12.818-39.44 30.9-47.329 15.776-6.9 37.8-8.217 54.559-10.189V59.16c0-6.9.657-15.119-3.615-21.035-3.615-5.259-10.189-7.559-16.1-7.559-11.175 0-21.035 5.587-23.336 17.42-.657 2.629-2.3 5.259-4.93 5.259l-27.937-2.958c-2.3-.657-4.93-2.3-4.273-5.916C391.789 10.189 422.356 0 449.964 0c14.133 0 32.538 3.615 43.713 14.461 14.133 13.147 12.818 30.9 12.818 49.958v45.028c0 13.476 5.587 19.392 10.846 26.951 1.972 2.629 2.3 5.916 0 7.559-6.245 4.93-16.762 14.133-22.678 19.063ZM85.783 92.357c0 11.175.329 20.706-5.259 30.9-4.6 8.217-11.832 13.147-20.049 13.147-11.175 0-17.748-8.545-17.748-21.035 0-24.65 22.021-29.252 43.056-29.252Zm28.923 70.664a5.942 5.942 0 0 1-6.9.657c-9.531-7.888-11.5-11.832-16.762-19.392-15.776 16.1-27.28 21.035-47.657 21.035-24.322 0-43.385-15.119-43.385-45.028 0-23.664 12.818-39.44 30.9-47.329 15.776-6.9 37.8-8.217 54.559-10.189V59.16c0-6.9.657-15.119-3.615-21.035-3.615-5.259-10.189-7.559-16.1-7.559-11.175 0-21.035 5.587-23.336 17.42-.657 2.629-2.3 5.259-4.93 5.259L9.543 50.287c-2.3-.657-4.93-2.3-4.273-5.916C11.843 10.189 42.41 0 70.018 0c14.133 0 32.538 3.615 43.713 14.461 14.133 13.147 12.818 30.9 12.818 49.958v45.028c0 13.476 5.587 19.392 10.846 26.951 1.972 2.629 2.3 5.916 0 7.559-6.245 4.93-16.762 14.133-22.678 19.063Z" data-name="Path 21"/></g></svg>